<svg width="58" height="68" viewBox="0 0 58 68" fill="none" xmlns="http://www.w3.org/2000/svg">
<path d="M54.1041 26.7545C55.8866 26.7545 57.3332 28.1799 57.3332 29.9432C57.3332 44.2891 46.335 56.135 32.2305 57.7262V64.145C32.2305 65.9051 30.7839 67.3337 29.0015 67.3337C27.2158 67.3337 25.7724 65.9051 25.7724 64.145V57.7262C11.6647 56.135 0.666504 44.2891 0.666504 29.9432C0.666504 28.1799 2.11312 26.7545 3.89556 26.7545C5.678 26.7545 7.12461 28.1799 7.12461 29.9432C7.12461 41.8529 16.9377 51.5433 29.0015 51.5433C41.062 51.5433 50.8751 41.8529 50.8751 29.9432C50.8751 28.1799 52.3217 26.7545 54.1041 26.7545ZM29.5824 0.666992C37.5936 0.666992 44.0905 7.07943 44.0905 14.9905V30.4014C44.0905 38.3093 37.5936 44.725 29.5824 44.725H28.4167C20.4054 44.725 13.9118 38.3093 13.9118 30.4014V14.9905C13.9118 7.07943 20.4054 0.666992 28.4167 0.666992H29.5824Z" fill="white"/>
</svg>
